<svg width="59" height="60" viewBox="0 0 59 60" fill="none" xmlns="http://www.w3.org/2000/svg">
<path d="M25.7673 59.984H25.0977L33.9156 19.0332L58.0135 19.0337L53.6291 25.4165H39.1677L36.2744 35.5149H47.3962L43.0476 41.6415H34.9351L31.7607 53.6338H57.5089L25.7673 59.984Z" fill="black"/>
<path d="M22.5911 59.9827L31.0977 19.0332L0.0555048 19.0337L4.60264 25.4165H18.3586L19.4167 35.2926H7.77708L12.3624 41.6415H20.1221L22.5911 59.9827Z" fill="black"/>
<path d="M8.99738 13.8223H12.6833L9.32261 17.3455H5.63672L8.99738 13.8223Z" fill="#202020"/>
<path d="M8.88727 11.7306L12.2382 10.6553L8.07607 8.18624L4.72517 9.26148L8.88727 11.7306Z" fill="#202020"/>
<path d="M2.41669 12.2359L5.69504 12.2356L2.29024 10.2322L0.85874 11.1616L0.408824 12.2354L2.41669 12.2359Z" fill="#202020"/>
<path d="M0.187663 13.8223L2.43871 13.8224L5.63724 13.8223L2.43871 17.3451L0 17.3455L0.187663 13.8223Z" fill="#202020"/>
<path d="M15.7082 13.8223H19.0255L16.0009 17.3455H12.6836L15.7082 13.8223Z" fill="#202020"/>
<path d="M15.7037 9.06065L19.0546 7.98541L14.8925 5.51632L11.5416 6.59156L15.7037 9.06065Z" fill="#202020"/>
<path d="M22.7551 13.8223H26.0724L23.0478 17.3455H19.7305L22.7551 13.8223Z" fill="#202020"/>
<path d="M22.5201 6.39659L25.871 5.32135L21.7089 2.85226L18.358 3.92749L22.5201 6.39659Z" fill="#202020"/>
<path d="M30.054 13.8223H31.0053V17.3455H26.7773L30.054 13.8223Z" fill="#202020"/>
<path d="M29.3326 3.73448L30.2196 3.44986L29.1127 0.000399123L25.1705 1.26538L29.3326 3.73448Z" fill="#202020"/>
</svg>
