<svg width="39" height="40" viewBox="0 0 39 40" fill="none" xmlns="http://www.w3.org/2000/svg">
<g clip-path="url(#clip0_5_168)">
<path d="M17.0327 39.9894H16.5901L22.4189 12.6888L38.348 12.6892L35.4498 16.9444H25.8906L23.9781 23.6766H31.3298L28.4553 27.761H23.0928L20.9944 35.7559H38.0144L17.0327 39.9894Z" fill="black"/>
<path d="M14.933 39.9885L20.556 12.6888L0.0366211 12.6892L3.04235 16.9444H12.1353L12.8347 23.5284H5.14071L8.17169 27.761H13.301L14.933 39.9885Z" fill="black"/>
<path d="M5.94753 9.21484H8.38398L6.16251 11.5636H3.72607L5.94753 9.21484Z" fill="#202020"/>
<path d="M5.87475 7.82043L8.08978 7.10356L5.33854 5.45752L3.12354 6.17435L5.87475 7.82043Z" fill="#202020"/>
<path d="M1.5975 8.15721L3.76454 8.15701L1.51391 6.82141L0.567666 7.44101L0.270264 8.15688L1.5975 8.15721Z" fill="#202020"/>
<path d="M0.124048 9.21484L1.61203 9.21491L3.72631 9.21484L1.61203 11.5634L0 11.5636L0.124048 9.21484Z" fill="#202020"/>
<path d="M10.3833 9.21484H12.5761L10.5768 11.5636H8.38403L10.3833 9.21484Z" fill="#202020"/>
<path d="M10.3804 6.04038L12.5954 5.32355L9.84415 3.67749L7.62915 4.39432L10.3804 6.04038Z" fill="#202020"/>
<path d="M15.0415 9.21484H17.2343L15.235 11.5636H13.0422L15.0415 9.21484Z" fill="#202020"/>
<path d="M14.8862 4.26438L17.1012 3.54755L14.35 1.90149L12.135 2.61831L14.8862 4.26438Z" fill="#202020"/>
<path d="M19.8662 9.21484H20.495V11.5636H17.7002L19.8662 9.21484Z" fill="#202020"/>
<path d="M19.3894 2.48963L19.9757 2.29988L19.244 0.000244141L16.6382 0.843565L19.3894 2.48963Z" fill="#202020"/>
</g>
<defs>
<clipPath id="clip0_5_168">
<rect width="39" height="40" fill="white"/>
</clipPath>
</defs>
</svg>
